<?xml version="1.0" encoding="utf-8" standalone="no"?>
<!DOCTYPE svg PUBLIC "-//W3C//DTD SVG 1.1//EN"
  "http://www.w3.org/Graphics/SVG/1.1/DTD/svg11.dtd">
<svg xmlns:xlink="http://www.w3.org/1999/xlink" width="288pt" height="144pt" viewBox="0 0 288 144" xmlns="http://www.w3.org/2000/svg" version="1.1">
 <metadata>
  <rdf:RDF xmlns:dc="http://purl.org/dc/elements/1.1/" xmlns:cc="http://creativecommons.org/ns#" xmlns:rdf="http://www.w3.org/1999/02/22-rdf-syntax-ns#">
   <cc:Work>
    <dc:type rdf:resource="http://purl.org/dc/dcmitype/StillImage"/>
    <dc:date>2025-03-08T21:50:31.200654</dc:date>
    <dc:format>image/svg+xml</dc:format>
    <dc:creator>
     <cc:Agent>
      <dc:title>Matplotlib v3.9.4, https://matplotlib.org/</dc:title>
     </cc:Agent>
    </dc:creator>
   </cc:Work>
  </rdf:RDF>
 </metadata>
 <defs>
  <style type="text/css">*{stroke-linejoin: round; stroke-linecap: butt}</style>
 </defs>
 <g id="figure_1">
  <g id="patch_1">
   <path d="M 0 144 
L 288 144 
L 288 0 
L 0 0 
z
" style="fill: #ffffff"/>
  </g>
  <g id="axes_1">
   <g id="patch_2">
    <path d="M 11.769545 116.12 
L 273.080455 116.12 
L 273.080455 10.8 
L 11.769545 10.8 
z
" style="fill: #ffffff"/>
   </g>
   <g id="patch_3">
    <path d="M 23.647314 116.12 
L 28.398421 116.12 
L 28.398421 15.815238 
L 23.647314 15.815238 
z
" clip-path="url(#p484cdb12e1)" style="fill: #ff8c00"/>
   </g>
   <g id="patch_4">
    <path d="M 28.398421 116.12 
L 33.149529 116.12 
L 33.149529 116.12 
L 28.398421 116.12 
z
" clip-path="url(#p484cdb12e1)" style="fill: #ff8c00"/>
   </g>
   <g id="patch_5">
    <path d="M 33.149529 116.12 
L 37.900636 116.12 
L 37.900636 116.12 
L 33.149529 116.12 
z
" clip-path="url(#p484cdb12e1)" style="fill: #ff8c00"/>
   </g>
   <g id="patch_6">
    <path d="M 37.900636 116.12 
L 42.651744 116.12 
L 42.651744 116.12 
L 37.900636 116.12 
z
" clip-path="url(#p484cdb12e1)" style="fill: #ff8c00"/>
   </g>
   <g id="patch_7">
    <path d="M 42.651744 116.12 
L 47.402851 116.12 
L 47.402851 116.12 
L 42.651744 116.12 
z
" clip-path="url(#p484cdb12e1)" style="fill: #ff8c00"/>
   </g>
   <g id="patch_8">
    <path d="M 47.402851 116.12 
L 52.153959 116.12 
L 52.153959 116.12 
L 47.402851 116.12 
z
" clip-path="url(#p484cdb12e1)" style="fill: #ff8c00"/>
   </g>
   <g id="patch_9">
    <path d="M 52.153959 116.12 
L 56.905066 116.12 
L 56.905066 116.12 
L 52.153959 116.12 
z
" clip-path="url(#p484cdb12e1)" style="fill: #ff8c00"/>
   </g>
   <g id="patch_10">
    <path d="M 56.905066 116.12 
L 61.656174 116.12 
L 61.656174 116.12 
L 56.905066 116.12 
z
" clip-path="url(#p484cdb12e1)" style="fill: #ff8c00"/>
   </g>
   <g id="patch_11">
    <path d="M 61.656174 116.12 
L 66.407281 116.12 
L 66.407281 116.12 
L 61.656174 116.12 
z
" clip-path="url(#p484cdb12e1)" style="fill: #ff8c00"/>
   </g>
   <g id="patch_12">
    <path d="M 66.407281 116.12 
L 71.158388 116.12 
L 71.158388 116.12 
L 66.407281 116.12 
z
" clip-path="url(#p484cdb12e1)" style="fill: #ff8c00"/>
   </g>
   <g id="patch_13">
    <path d="M 71.158388 116.12 
L 75.909496 116.12 
L 75.909496 116.12 
L 71.158388 116.12 
z
" clip-path="url(#p484cdb12e1)" style="fill: #ff8c00"/>
   </g>
   <g id="patch_14">
    <path d="M 75.909496 116.12 
L 80.660603 116.12 
L 80.660603 116.12 
L 75.909496 116.12 
z
" clip-path="url(#p484cdb12e1)" style="fill: #ff8c00"/>
   </g>
   <g id="patch_15">
    <path d="M 80.660603 116.12 
L 85.411711 116.12 
L 85.411711 116.12 
L 80.660603 116.12 
z
" clip-path="url(#p484cdb12e1)" style="fill: #ff8c00"/>
   </g>
   <g id="patch_16">
    <path d="M 85.411711 116.12 
L 90.162818 116.12 
L 90.162818 15.815238 
L 85.411711 15.815238 
z
" clip-path="url(#p484cdb12e1)" style="fill: #ff8c00"/>
   </g>
   <g id="patch_17">
    <path d="M 90.162818 116.12 
L 94.913926 116.12 
L 94.913926 15.815238 
L 90.162818 15.815238 
z
" clip-path="url(#p484cdb12e1)" style="fill: #ff8c00"/>
   </g>
   <g id="patch_18">
    <path d="M 94.913926 116.12 
L 99.665033 116.12 
L 99.665033 116.12 
L 94.913926 116.12 
z
" clip-path="url(#p484cdb12e1)" style="fill: #ff8c00"/>
   </g>
   <g id="patch_19">
    <path d="M 99.665033 116.12 
L 104.41614 116.12 
L 104.41614 15.815238 
L 99.665033 15.815238 
z
" clip-path="url(#p484cdb12e1)" style="fill: #ff8c00"/>
   </g>
   <g id="patch_20">
    <path d="M 104.41614 116.12 
L 109.167248 116.12 
L 109.167248 116.12 
L 104.41614 116.12 
z
" clip-path="url(#p484cdb12e1)" style="fill: #ff8c00"/>
   </g>
   <g id="patch_21">
    <path d="M 109.167248 116.12 
L 113.918355 116.12 
L 113.918355 116.12 
L 109.167248 116.12 
z
" clip-path="url(#p484cdb12e1)" style="fill: #ff8c00"/>
   </g>
   <g id="patch_22">
    <path d="M 113.918355 116.12 
L 118.669463 116.12 
L 118.669463 116.12 
L 113.918355 116.12 
z
" clip-path="url(#p484cdb12e1)" style="fill: #ff8c00"/>
   </g>
   <g id="patch_23">
    <path d="M 118.669463 116.12 
L 123.42057 116.12 
L 123.42057 116.12 
L 118.669463 116.12 
z
" clip-path="url(#p484cdb12e1)" style="fill: #ff8c00"/>
   </g>
   <g id="patch_24">
    <path d="M 123.42057 116.12 
L 128.171678 116.12 
L 128.171678 15.815238 
L 123.42057 15.815238 
z
" clip-path="url(#p484cdb12e1)" style="fill: #ff8c00"/>
   </g>
   <g id="patch_25">
    <path d="M 128.171678 116.12 
L 132.922785 116.12 
L 132.922785 116.12 
L 128.171678 116.12 
z
" clip-path="url(#p484cdb12e1)" style="fill: #ff8c00"/>
   </g>
   <g id="patch_26">
    <path d="M 132.922785 116.12 
L 137.673893 116.12 
L 137.673893 116.12 
L 132.922785 116.12 
z
" clip-path="url(#p484cdb12e1)" style="fill: #ff8c00"/>
   </g>
   <g id="patch_27">
    <path d="M 137.673893 116.12 
L 142.425 116.12 
L 142.425 116.12 
L 137.673893 116.12 
z
" clip-path="url(#p484cdb12e1)" style="fill: #ff8c00"/>
   </g>
   <g id="patch_28">
    <path d="M 142.425 116.12 
L 147.176107 116.12 
L 147.176107 116.12 
L 142.425 116.12 
z
" clip-path="url(#p484cdb12e1)" style="fill: #ff8c00"/>
   </g>
   <g id="patch_29">
    <path d="M 147.176107 116.12 
L 151.927215 116.12 
L 151.927215 116.12 
L 147.176107 116.12 
z
" clip-path="url(#p484cdb12e1)" style="fill: #ff8c00"/>
   </g>
   <g id="patch_30">
    <path d="M 151.927215 116.12 
L 156.678322 116.12 
L 156.678322 116.12 
L 151.927215 116.12 
z
" clip-path="url(#p484cdb12e1)" style="fill: #ff8c00"/>
   </g>
   <g id="patch_31">
    <path d="M 156.678322 116.12 
L 161.42943 116.12 
L 161.42943 15.815238 
L 156.678322 15.815238 
z
" clip-path="url(#p484cdb12e1)" style="fill: #ff8c00"/>
   </g>
   <g id="patch_32">
    <path d="M 161.42943 116.12 
L 166.180537 116.12 
L 166.180537 116.12 
L 161.42943 116.12 
z
" clip-path="url(#p484cdb12e1)" style="fill: #ff8c00"/>
   </g>
   <g id="patch_33">
    <path d="M 166.180537 116.12 
L 170.931645 116.12 
L 170.931645 116.12 
L 166.180537 116.12 
z
" clip-path="url(#p484cdb12e1)" style="fill: #ff8c00"/>
   </g>
   <g id="patch_34">
    <path d="M 170.931645 116.12 
L 175.682752 116.12 
L 175.682752 116.12 
L 170.931645 116.12 
z
" clip-path="url(#p484cdb12e1)" style="fill: #ff8c00"/>
   </g>
   <g id="patch_35">
    <path d="M 175.682752 116.12 
L 180.43386 116.12 
L 180.43386 116.12 
L 175.682752 116.12 
z
" clip-path="url(#p484cdb12e1)" style="fill: #ff8c00"/>
   </g>
   <g id="patch_36">
    <path d="M 180.43386 116.12 
L 185.184967 116.12 
L 185.184967 15.815238 
L 180.43386 15.815238 
z
" clip-path="url(#p484cdb12e1)" style="fill: #ff8c00"/>
   </g>
   <g id="patch_37">
    <path d="M 185.184967 116.12 
L 189.936074 116.12 
L 189.936074 116.12 
L 185.184967 116.12 
z
" clip-path="url(#p484cdb12e1)" style="fill: #ff8c00"/>
   </g>
   <g id="patch_38">
    <path d="M 189.936074 116.12 
L 194.687182 116.12 
L 194.687182 15.815238 
L 189.936074 15.815238 
z
" clip-path="url(#p484cdb12e1)" style="fill: #ff8c00"/>
   </g>
   <g id="patch_39">
    <path d="M 194.687182 116.12 
L 199.438289 116.12 
L 199.438289 116.12 
L 194.687182 116.12 
z
" clip-path="url(#p484cdb12e1)" style="fill: #ff8c00"/>
   </g>
   <g id="patch_40">
    <path d="M 199.438289 116.12 
L 204.189397 116.12 
L 204.189397 116.12 
L 199.438289 116.12 
z
" clip-path="url(#p484cdb12e1)" style="fill: #ff8c00"/>
   </g>
   <g id="patch_41">
    <path d="M 204.189397 116.12 
L 208.940504 116.12 
L 208.940504 116.12 
L 204.189397 116.12 
z
" clip-path="url(#p484cdb12e1)" style="fill: #ff8c00"/>
   </g>
   <g id="patch_42">
    <path d="M 208.940504 116.12 
L 213.691612 116.12 
L 213.691612 15.815238 
L 208.940504 15.815238 
z
" clip-path="url(#p484cdb12e1)" style="fill: #ff8c00"/>
   </g>
   <g id="patch_43">
    <path d="M 213.691612 116.12 
L 218.442719 116.12 
L 218.442719 116.12 
L 213.691612 116.12 
z
" clip-path="url(#p484cdb12e1)" style="fill: #ff8c00"/>
   </g>
   <g id="patch_44">
    <path d="M 218.442719 116.12 
L 223.193826 116.12 
L 223.193826 116.12 
L 218.442719 116.12 
z
" clip-path="url(#p484cdb12e1)" style="fill: #ff8c00"/>
   </g>
   <g id="patch_45">
    <path d="M 223.193826 116.12 
L 227.944934 116.12 
L 227.944934 116.12 
L 223.193826 116.12 
z
" clip-path="url(#p484cdb12e1)" style="fill: #ff8c00"/>
   </g>
   <g id="patch_46">
    <path d="M 227.944934 116.12 
L 232.696041 116.12 
L 232.696041 116.12 
L 227.944934 116.12 
z
" clip-path="url(#p484cdb12e1)" style="fill: #ff8c00"/>
   </g>
   <g id="patch_47">
    <path d="M 232.696041 116.12 
L 237.447149 116.12 
L 237.447149 116.12 
L 232.696041 116.12 
z
" clip-path="url(#p484cdb12e1)" style="fill: #ff8c00"/>
   </g>
   <g id="patch_48">
    <path d="M 237.447149 116.12 
L 242.198256 116.12 
L 242.198256 116.12 
L 237.447149 116.12 
z
" clip-path="url(#p484cdb12e1)" style="fill: #ff8c00"/>
   </g>
   <g id="patch_49">
    <path d="M 242.198256 116.12 
L 246.949364 116.12 
L 246.949364 116.12 
L 242.198256 116.12 
z
" clip-path="url(#p484cdb12e1)" style="fill: #ff8c00"/>
   </g>
   <g id="patch_50">
    <path d="M 246.949364 116.12 
L 251.700471 116.12 
L 251.700471 116.12 
L 246.949364 116.12 
z
" clip-path="url(#p484cdb12e1)" style="fill: #ff8c00"/>
   </g>
   <g id="patch_51">
    <path d="M 251.700471 116.12 
L 256.451579 116.12 
L 256.451579 116.12 
L 251.700471 116.12 
z
" clip-path="url(#p484cdb12e1)" style="fill: #ff8c00"/>
   </g>
   <g id="patch_52">
    <path d="M 256.451579 116.12 
L 261.202686 116.12 
L 261.202686 15.815238 
L 256.451579 15.815238 
z
" clip-path="url(#p484cdb12e1)" style="fill: #ff8c00"/>
   </g>
   <g id="matplotlib.axis_1">
    <g id="xtick_1">
     <g id="line2d_1">
      <defs>
       <path id="md17cdab8e8" d="M 0 0 
L 0 3.5 
" style="stroke: #000000; stroke-width: 0.8"/>
      </defs>
      <g>
       <use xlink:href="#md17cdab8e8" x="23.647314" y="116.12" style="stroke: #000000; stroke-width: 0.8"/>
      </g>
     </g>
     <g id="text_1">
      <!-- 94.9 -->
      <g transform="translate(12.514502 130.718437) scale(0.1 -0.1)">
       <defs>
        <path id="DejaVuSans-39" d="M 703 97 
L 703 672 
Q 941 559 1184 500 
Q 1428 441 1663 441 
Q 2288 441 2617 861 
Q 2947 1281 2994 2138 
Q 2813 1869 2534 1725 
Q 2256 1581 1919 1581 
Q 1219 1581 811 2004 
Q 403 2428 403 3163 
Q 403 3881 828 4315 
Q 1253 4750 1959 4750 
Q 2769 4750 3195 4129 
Q 3622 3509 3622 2328 
Q 3622 1225 3098 567 
Q 2575 -91 1691 -91 
Q 1453 -91 1209 -44 
Q 966 3 703 97 
z
M 1959 2075 
Q 2384 2075 2632 2365 
Q 2881 2656 2881 3163 
Q 2881 3666 2632 3958 
Q 2384 4250 1959 4250 
Q 1534 4250 1286 3958 
Q 1038 3666 1038 3163 
Q 1038 2656 1286 2365 
Q 1534 2075 1959 2075 
z
" transform="scale(0.015625)"/>
        <path id="DejaVuSans-34" d="M 2419 4116 
L 825 1625 
L 2419 1625 
L 2419 4116 
z
M 2253 4666 
L 3047 4666 
L 3047 1625 
L 3713 1625 
L 3713 1100 
L 3047 1100 
L 3047 0 
L 2419 0 
L 2419 1100 
L 313 1100 
L 313 1709 
L 2253 4666 
z
" transform="scale(0.015625)"/>
        <path id="DejaVuSans-2e" d="M 684 794 
L 1344 794 
L 1344 0 
L 684 0 
L 684 794 
z
" transform="scale(0.015625)"/>
       </defs>
       <use xlink:href="#DejaVuSans-39"/>
       <use xlink:href="#DejaVuSans-34" x="63.623047"/>
       <use xlink:href="#DejaVuSans-2e" x="127.246094"/>
       <use xlink:href="#DejaVuSans-39" x="159.033203"/>
      </g>
     </g>
    </g>
    <g id="xtick_2">
     <g id="line2d_2">
      <g>
       <use xlink:href="#md17cdab8e8" x="261.202686" y="116.12" style="stroke: #000000; stroke-width: 0.8"/>
      </g>
     </g>
     <g id="text_2">
      <!-- 249.9 -->
      <g transform="translate(246.888623 130.718437) scale(0.1 -0.1)">
       <defs>
        <path id="DejaVuSans-32" d="M 1228 531 
L 3431 531 
L 3431 0 
L 469 0 
L 469 531 
Q 828 903 1448 1529 
Q 2069 2156 2228 2338 
Q 2531 2678 2651 2914 
Q 2772 3150 2772 3378 
Q 2772 3750 2511 3984 
Q 2250 4219 1831 4219 
Q 1534 4219 1204 4116 
Q 875 4013 500 3803 
L 500 4441 
Q 881 4594 1212 4672 
Q 1544 4750 1819 4750 
Q 2544 4750 2975 4387 
Q 3406 4025 3406 3419 
Q 3406 3131 3298 2873 
Q 3191 2616 2906 2266 
Q 2828 2175 2409 1742 
Q 1991 1309 1228 531 
z
" transform="scale(0.015625)"/>
       </defs>
       <use xlink:href="#DejaVuSans-32"/>
       <use xlink:href="#DejaVuSans-34" x="63.623047"/>
       <use xlink:href="#DejaVuSans-39" x="127.246094"/>
       <use xlink:href="#DejaVuSans-2e" x="190.869141"/>
       <use xlink:href="#DejaVuSans-39" x="222.65625"/>
      </g>
     </g>
    </g>
   </g>
   <g id="matplotlib.axis_2"/>
   <g id="patch_53">
    <path d="M 11.769545 116.12 
L 11.769545 10.8 
" style="fill: none; stroke: #000000; stroke-width: 0.8; stroke-linejoin: miter; stroke-linecap: square"/>
   </g>
   <g id="patch_54">
    <path d="M 273.080455 116.12 
L 273.080455 10.8 
" style="fill: none; stroke: #000000; stroke-width: 0.8; stroke-linejoin: miter; stroke-linecap: square"/>
   </g>
   <g id="patch_55">
    <path d="M 11.769545 116.12 
L 273.080455 116.12 
" style="fill: none; stroke: #000000; stroke-width: 0.8; stroke-linejoin: miter; stroke-linecap: square"/>
   </g>
   <g id="patch_56">
    <path d="M 11.769545 10.8 
L 273.080455 10.8 
" style="fill: none; stroke: #000000; stroke-width: 0.8; stroke-linejoin: miter; stroke-linecap: square"/>
   </g>
  </g>
 </g>
 <defs>
  <clipPath id="p484cdb12e1">
   <rect x="11.769545" y="10.8" width="261.310909" height="105.32"/>
  </clipPath>
 </defs>
</svg>
